<mxfile host="65bd71144e">
    <diagram name="Seite-1" id="1UqIFNeRel8w9c3Ury_5">
        <mxGraphModel dx="774" dy="442" grid="1" gridSize="10" guides="1" tooltips="1" connect="1" arrows="1" fold="1" page="0" pageScale="1" pageWidth="827" pageHeight="1169" math="0" shadow="0">
            <root>
                <mxCell id="0"/>
                <mxCell id="1" parent="0"/>
                <mxCell id="4" value="" style="rounded=0;whiteSpace=wrap;html=1;fillColor=#FFFFFF;glass=0;strokeColor=default;" parent="1" vertex="1">
                    <mxGeometry x="380" y="136" width="410" height="354" as="geometry"/>
                </mxCell>
                <mxCell id="iihOq3sOjZAMv7ztsFPM-3" value="VPC" style="sketch=0;outlineConnect=0;gradientColor=none;html=1;whiteSpace=wrap;fontSize=12;fontStyle=0;shape=mxgraph.aws4.group;grIcon=mxgraph.aws4.group_vpc;strokeColor=#000000;fillColor=none;verticalAlign=top;align=left;spacingLeft=30;fontColor=#333333;dashed=0;perimeterSpacing=0;strokeWidth=1;" parent="1" vertex="1">
                    <mxGeometry x="471" y="174" width="309" height="306" as="geometry"/>
                </mxCell>
                <mxCell id="iihOq3sOjZAMv7ztsFPM-40" value="AWS Cloud" style="points=[[0,0],[0.25,0],[0.5,0],[0.75,0],[1,0],[1,0.25],[1,0.5],[1,0.75],[1,1],[0.75,1],[0.5,1],[0.25,1],[0,1],[0,0.75],[0,0.5],[0,0.25]];outlineConnect=0;gradientColor=none;html=1;whiteSpace=wrap;fontSize=12;fontStyle=0;container=0;pointerEvents=0;collapsible=0;recursiveResize=0;shape=mxgraph.aws4.group;grIcon=mxgraph.aws4.group_aws_cloud_alt;strokeColor=#232F3E;fillColor=none;verticalAlign=top;align=left;spacingLeft=30;fontColor=#232F3E;dashed=0;" parent="1" vertex="1">
                    <mxGeometry x="390" y="144" width="390" height="336" as="geometry"/>
                </mxCell>
                <mxCell id="3" value="" style="group" parent="1" vertex="1" connectable="0">
                    <mxGeometry x="250" y="203.5" width="60" height="70" as="geometry"/>
                </mxCell>
                <mxCell id="2" value="" style="rounded=1;whiteSpace=wrap;html=1;fillColor=#FFFFFF;" parent="3" vertex="1">
                    <mxGeometry width="60" height="70" as="geometry"/>
                </mxCell>
                <mxCell id="iihOq3sOjZAMv7ztsFPM-18" value="" style="sketch=0;outlineConnect=0;fontColor=#232F3E;gradientColor=none;fillColor=#232F3D;strokeColor=none;dashed=0;verticalLabelPosition=bottom;verticalAlign=top;align=center;html=1;fontSize=12;fontStyle=0;aspect=fixed;pointerEvents=1;shape=mxgraph.aws4.users;" parent="3" vertex="1">
                    <mxGeometry x="6" y="11.25" width="47.5" height="47.5" as="geometry"/>
                </mxCell>
                <mxCell id="10" value="" style="edgeStyle=orthogonalEdgeStyle;html=1;endArrow=block;elbow=vertical;startArrow=none;endFill=1;strokeColor=#545B64;rounded=0;exitX=1;exitY=0.5;exitDx=0;exitDy=0;" parent="1" source="2" target="63" edge="1">
                    <mxGeometry width="100" relative="1" as="geometry">
                        <mxPoint x="455.75" y="151.38" as="sourcePoint"/>
                        <mxPoint x="400" y="240" as="targetPoint"/>
                    </mxGeometry>
                </mxCell>
                <mxCell id="65" value="" style="group" parent="1" vertex="1" connectable="0">
                    <mxGeometry x="395" y="218" width="70" height="40" as="geometry"/>
                </mxCell>
                <mxCell id="63" value="" style="sketch=0;outlineConnect=0;fontColor=#232F3E;gradientColor=none;fillColor=#4D27AA;strokeColor=none;dashed=0;verticalLabelPosition=bottom;verticalAlign=top;align=center;html=1;fontSize=12;fontStyle=0;aspect=fixed;pointerEvents=1;shape=mxgraph.aws4.internet_gateway;" parent="65" vertex="1">
                    <mxGeometry x="15" width="40" height="40" as="geometry"/>
                </mxCell>
                <mxCell id="64" value="&lt;font style=&quot;font-size: 8px;&quot;&gt;Internet Gateway&lt;/font&gt;" style="text;html=1;strokeColor=none;fillColor=none;align=center;verticalAlign=top;whiteSpace=wrap;rounded=0;fontColor=#000000;" parent="65" vertex="1">
                    <mxGeometry y="31.25" width="70" height="8.75" as="geometry"/>
                </mxCell>
                <mxCell id="345" value="" style="group" vertex="1" connectable="0" parent="1">
                    <mxGeometry x="590" y="370" width="189.5" height="109.5" as="geometry"/>
                </mxCell>
                <mxCell id="219" value="Public subnet" style="points=[[0,0],[0.25,0],[0.5,0],[0.75,0],[1,0],[1,0.25],[1,0.5],[1,0.75],[1,1],[0.75,1],[0.5,1],[0.25,1],[0,1],[0,0.75],[0,0.5],[0,0.25]];outlineConnect=0;gradientColor=none;html=1;whiteSpace=wrap;fontSize=12;fontStyle=0;container=1;pointerEvents=0;collapsible=0;recursiveResize=0;shape=mxgraph.aws4.group;grIcon=mxgraph.aws4.group_security_group;grStroke=0;strokeColor=#248814;fillColor=#E9F3E6;verticalAlign=top;align=left;spacingLeft=30;fontColor=#248814;dashed=0;" parent="345" vertex="1">
                    <mxGeometry width="189.5" height="109.5" as="geometry"/>
                </mxCell>
                <mxCell id="332" value="" style="group" vertex="1" connectable="0" parent="345">
                    <mxGeometry x="29.743260869565237" y="30.987873134328357" width="140.06521739130434" height="74.56623134328358" as="geometry"/>
                </mxCell>
                <mxCell id="333" value="" style="group" vertex="1" connectable="0" parent="332">
                    <mxGeometry x="6.591304347826087" y="-2.451492537313433" width="133.47391304347826" height="71.29757462686567" as="geometry"/>
                </mxCell>
                <mxCell id="334" value="" style="group" vertex="1" connectable="0" parent="333">
                    <mxGeometry y="2.1684643190298503" width="121.44618555660249" height="69.12911030783582" as="geometry"/>
                </mxCell>
                <mxCell id="335" value="&lt;p style=&quot;line-height: 70%;&quot;&gt;&lt;font style=&quot;font-size: 5px;&quot;&gt;patroni primary&lt;/font&gt;&lt;/p&gt;" style="text;html=1;strokeColor=none;fillColor=none;align=center;verticalAlign=middle;whiteSpace=wrap;rounded=0;fontColor=#000000;" vertex="1" parent="334">
                    <mxGeometry x="-10.842695652173914" y="-3.5168656716417908" width="52.038347826086955" height="5.434141791044776" as="geometry"/>
                </mxCell>
                <mxCell id="336" value="" style="shape=image;verticalLabelPosition=bottom;labelBackgroundColor=default;verticalAlign=top;aspect=fixed;imageAspect=0;image=data:image/svg+xml,PHN2ZyB4bWxucz0iaHR0cDovL3d3dy53My5vcmcvMjAwMC9zdmciIHhtbDpzcGFjZT0icHJlc2VydmUiIHZpZXdCb3g9IjAgMCA0MzIuMDcxIDQ0NS4zODMiIGhlaWdodD0iNDQ1LjM4M3B0IiB3aWR0aD0iNDMyLjA3MXB0Ij4KPGcgc3R5bGU9ImZpbGwtcnVsZTpub256ZXJvO2NsaXAtcnVsZTpub256ZXJvO3N0cm9rZTojMDAwMDAwO3N0cm9rZS1taXRlcmxpbWl0OjQ7IiBpZD0ib3JnaW5hbCI+Cgk8L2c+CjxnIHN0eWxlPSJmaWxsLXJ1bGU6bm9uemVybztjbGlwLXJ1bGU6bm9uemVybztmaWxsOm5vbmU7c3Ryb2tlOiNGRkZGRkY7c3Ryb2tlLXdpZHRoOjEyLjQ2NTE7c3Ryb2tlLWxpbmVjYXA6cm91bmQ7c3Ryb2tlLWxpbmVqb2luOnJvdW5kO3N0cm9rZS1taXRlcmxpbWl0OjQ7IiBpZD0iTGF5ZXJfeDAwMjBfMyI+CjxwYXRoIGQ9Ik0zMjMuMjA1LDMyNC4yMjdjMi44MzMtMjMuNjAxLDEuOTg0LTI3LjA2MiwxOS41NjMtMjMuMjM5bDQuNDYzLDAuMzkyYzEzLjUxNywwLjYxNSwzMS4xOTktMi4xNzQsNDEuNTg3LTdjMjIuMzYyLTEwLjM3NiwzNS42MjItMjcuNywxMy41NzItMjMuMTQ4Yy01MC4yOTcsMTAuMzc2LTUzLjc1NS02LjY1NS01My43NTUtNi42NTVjNTMuMTExLTc4LjgwMyw3NS4zMTMtMTc4LjgzNiw1Ni4xNDktMjAzLjMyMiAgICBDMzUyLjUxNC01LjUzNCwyNjIuMDM2LDI2LjA0OSwyNjAuNTIyLDI2Ljg2OWwtMC40ODIsMC4wODljLTkuOTM4LTIuMDYyLTIxLjA2LTMuMjk0LTMzLjU1NC0zLjQ5NmMtMjIuNzYxLTAuMzc0LTQwLjAzMiw1Ljk2Ny01My4xMzMsMTUuOTA0YzAsMC0xNjEuNDA4LTY2LjQ5OC0xNTMuODk5LDgzLjYyOGMxLjU5NywzMS45MzYsNDUuNzc3LDI0MS42NTUsOTguNDcsMTc4LjMxICAgIGMxOS4yNTktMjMuMTYzLDM3Ljg3MS00Mi43NDgsMzcuODcxLTQyLjc0OGM5LjI0Miw2LjE0LDIwLjMwNyw5LjI3MiwzMS45MTIsOC4xNDdsMC44OTctMC43NjVjLTAuMjgxLDIuODc2LTAuMTU3LDUuNjg5LDAuMzU5LDkuMDE5Yy0xMy41NzIsMTUuMTY3LTkuNTg0LDE3LjgzLTM2LjcyMywyMy40MTZjLTI3LjQ1Nyw1LjY1OS0xMS4zMjYsMTUuNzM0LTAuNzk3LDE4LjM2N2MxMi43NjgsMy4xOTMsNDIuMzA1LDcuNzE2LDYyLjI2OC0yMC4yMjQgICAgbC0wLjc5NSwzLjE4OGM1LjMyNSw0LjI2LDQuOTY1LDMwLjYxOSw1LjcyLDQ5LjQ1MmMwLjc1NiwxOC44MzQsMi4wMTcsMzYuNDA5LDUuODU2LDQ2Ljc3MWMzLjgzOSwxMC4zNiw4LjM2OSwzNy4wNSw0NC4wMzYsMjkuNDA2YzI5LjgwOS02LjM4OCw1Mi42LTE1LjU4Miw1NC42NzctMTAxLjEwNyIgc3R5bGU9ImZpbGw6IzAwMDAwMDtzdHJva2U6IzAwMDAwMDtzdHJva2Utd2lkdGg6MzcuMzk1MztzdHJva2UtbGluZWNhcDpidXR0O3N0cm9rZS1saW5lam9pbjptaXRlcjsiLz4KPHBhdGggZD0iTTQwMi4zOTUsMjcxLjIzYy01MC4zMDIsMTAuMzc2LTUzLjc2LTYuNjU1LTUzLjc2LTYuNjU1YzUzLjExMS03OC44MDgsNzUuMzEzLTE3OC44NDMsNTYuMTUzLTIwMy4zMjZjLTUyLjI3LTY2Ljc4NS0xNDIuNzUyLTM1LjItMTQ0LjI2Mi0zNC4zOGwtMC40ODYsMC4wODdjLTkuOTM4LTIuMDYzLTIxLjA2LTMuMjkyLTMzLjU2LTMuNDk2Yy0yMi43NjEtMC4zNzMtNDAuMDI2LDUuOTY3LTUzLjEyNywxNS45MDIgICAgYzAsMC0xNjEuNDExLTY2LjQ5NS0xNTMuOTA0LDgzLjYzYzEuNTk3LDMxLjkzOCw0NS43NzYsMjQxLjY1Nyw5OC40NzEsMTc4LjMxMmMxOS4yNi0yMy4xNjMsMzcuODY5LTQyLjc0OCwzNy44NjktNDIuNzQ4YzkuMjQzLDYuMTQsMjAuMzA4LDkuMjcyLDMxLjkwOCw4LjE0N2wwLjkwMS0wLjc2NWMtMC4yOCwyLjg3Ni0wLjE1Miw1LjY4OSwwLjM2MSw5LjAxOWMtMTMuNTc1LDE1LjE2Ny05LjU4NiwxNy44My0zNi43MjMsMjMuNDE2ICAgIGMtMjcuNDU5LDUuNjU5LTExLjMyOCwxNS43MzQtMC43OTYsMTguMzY3YzEyLjc2OCwzLjE5Myw0Mi4zMDcsNy43MTYsNjIuMjY2LTIwLjIyNGwtMC43OTYsMy4xODhjNS4zMTksNC4yNiw5LjA1NCwyNy43MTEsOC40MjgsNDguOTY5Yy0wLjYyNiwyMS4yNTktMS4wNDQsMzUuODU0LDMuMTQ3LDQ3LjI1NGM0LjE5MSwxMS40LDguMzY4LDM3LjA1LDQ0LjA0MiwyOS40MDZjMjkuODA5LTYuMzg4LDQ1LjI1Ni0yMi45NDIsNDcuNDA1LTUwLjU1NSAgICBjMS41MjUtMTkuNjMxLDQuOTc2LTE2LjcyOSw1LjE5NC0zNC4yOGwyLjc2OC04LjMwOWMzLjE5Mi0yNi42MTEsMC41MDctMzUuMTk2LDE4Ljg3Mi0zMS4yMDNsNC40NjMsMC4zOTJjMTMuNTE3LDAuNjE1LDMxLjIwOC0yLjE3NCw0MS41OTEtN2MyMi4zNTgtMTAuMzc2LDM1LjYxOC0yNy43LDEzLjU3My0yMy4xNDh6IiBzdHlsZT0iZmlsbDojMzM2NzkxO3N0cm9rZTpub25lOyIvPgo8cGF0aCBkPSJNMjE1Ljg2NiwyODYuNDg0Yy0xLjM4NSw0OS41MTYsMC4zNDgsOTkuMzc3LDUuMTkzLDExMS40OTVjNC44NDgsMTIuMTE4LDE1LjIyMywzNS42ODgsNTAuOSwyOC4wNDVjMjkuODA2LTYuMzksNDAuNjUxLTE4Ljc1Niw0NS4zNTctNDYuMDUxYzMuNDY2LTIwLjA4MiwxMC4xNDgtNzUuODU0LDExLjAwNS04Ny4yODEiLz4KPHBhdGggZD0iTTE3My4xMDQsMzguMjU2YzAsMC0xNjEuNTIxLTY2LjAxNi0xNTQuMDEyLDg0LjEwOWMxLjU5NywzMS45MzgsNDUuNzc5LDI0MS42NjQsOTguNDczLDE3OC4zMTZjMTkuMjU2LTIzLjE2NiwzNi42NzEtNDEuMzM1LDM2LjY3MS00MS4zMzUiLz4KPHBhdGggZD0iTTI2MC4zNDksMjYuMjA3Yy01LjU5MSwxLjc1Myw4OS44NDgtMzQuODg5LDE0NC4wODcsMzQuNDE3YzE5LjE1OSwyNC40ODQtMy4wNDMsMTI0LjUxOS01Ni4xNTMsMjAzLjMyOSIvPgo8cGF0aCBkPSJNMzQ4LjI4MiwyNjMuOTUzYzAsMCwzLjQ2MSwxNy4wMzYsNTMuNzY0LDYuNjUzYzIyLjA0LTQuNTUyLDguNzc2LDEyLjc3NC0xMy41NzcsMjMuMTU1Yy0xOC4zNDUsOC41MTQtNTkuNDc0LDEwLjY5Ni02MC4xNDYtMS4wNjljLTEuNzI5LTMwLjM1NSwyMS42NDctMjEuMTMzLDE5Ljk2LTI4LjczOWMtMS41MjUtNi44NS0xMS45NzktMTMuNTczLTE4Ljg5NC0zMC4zMzggICAgYy02LjAzNy0xNC42MzMtODIuNzk2LTEyNi44NDksMjEuMjg3LTExMC4xODNjMy44MTMtMC43ODktMjcuMTQ2LTk5LjAwMi0xMjQuNTUzLTEwMC41OTljLTk3LjM4NS0xLjU5Ny05NC4xOSwxMTkuNzYyLTk0LjE5LDExOS43NjIiIHN0eWxlPSJzdHJva2UtbGluZWpvaW46YmV2ZWw7Ii8+CjxwYXRoIGQ9Ik0xODguNjA0LDI3NC4zMzRjLTEzLjU3NywxNS4xNjYtOS41ODQsMTcuODI5LTM2LjcyMywyMy40MTdjLTI3LjQ1OSw1LjY2LTExLjMyNiwxNS43MzMtMC43OTcsMTguMzY1YzEyLjc2OCwzLjE5NSw0Mi4zMDcsNy43MTgsNjIuMjY2LTIwLjIyOWM2LjA3OC04LjUwOS0wLjAzNi0yMi4wODYtOC4zODUtMjUuNTQ3Yy00LjAzNC0xLjY3MS05LjQyOC0zLjc2NS0xNi4zNjEsMy45OTR6Ii8+CjxwYXRoIGQ9Ik0xODcuNzE1LDI3NC4wNjljLTEuMzY4LTguOTE3LDIuOTMtMTkuNTI4LDcuNTM2LTMxLjk0MmM2LjkyMi0xOC42MjYsMjIuODkzLTM3LjI1NSwxMC4xMTctOTYuMzM5Yy05LjUyMy00NC4wMjktNzMuMzk2LTkuMTYzLTczLjQzNi0zLjE5M2MtMC4wMzksNS45NjgsMi44ODksMzAuMjYtMS4wNjcsNTguNTQ4Yy01LjE2MiwzNi45MTMsMjMuNDg4LDY4LjEzMiw1Ni40NzksNjQuOTM4Ii8+CjxwYXRoIGQ9Ik0xNzIuNTE3LDE0MS43Yy0wLjI4OCwyLjAzOSwzLjczMyw3LjQ4LDguOTc2LDguMjA3YzUuMjM0LDAuNzMsOS43MTQtMy41MjIsOS45OTgtNS41NTljMC4yODQtMi4wMzktMy43MzItNC4yODUtOC45NzctNS4wMTVjLTUuMjM3LTAuNzMxLTkuNzE5LDAuMzMzLTkuOTk2LDIuMzY3eiIgc3R5bGU9ImZpbGw6I0ZGRkZGRjtzdHJva2Utd2lkdGg6NC4xNTU7c3Ryb2tlLWxpbmVjYXA6YnV0dDtzdHJva2UtbGluZWpvaW46bWl0ZXI7Ii8+CjxwYXRoIGQ9Ik0zMzEuOTQxLDEzNy41NDNjMC4yODQsMi4wMzktMy43MzIsNy40OC04Ljk3Niw4LjIwN2MtNS4yMzgsMC43My05LjcxOC0zLjUyMi0xMC4wMDUtNS41NTljLTAuMjc3LTIuMDM5LDMuNzQtNC4yODUsOC45NzktNS4wMTVjNS4yMzktMC43Myw5LjcxOCwwLjMzMywxMC4wMDIsMi4zNjh6IiBzdHlsZT0iZmlsbDojRkZGRkZGO3N0cm9rZS13aWR0aDoyLjA3NzU7c3Ryb2tlLWxpbmVjYXA6YnV0dDtzdHJva2UtbGluZWpvaW46bWl0ZXI7Ii8+CjxwYXRoIGQ9Ik0zNTAuNjc2LDEyMy40MzJjMC44NjMsMTUuOTk0LTMuNDQ1LDI2Ljg4OC0zLjk4OCw0My45MTRjLTAuODA0LDI0Ljc0OCwxMS43OTksNTMuMDc0LTcuMTkxLDgxLjQzNSIvPgo8cGF0aCBkPSJNMCw2MC4yMzIiIHN0eWxlPSJzdHJva2Utd2lkdGg6MzsiLz4KPC9nPgo8L3N2Zz4=;" vertex="1" parent="334">
                    <mxGeometry y="5.431162546641777" width="20.429104477611936" height="21.041977611940293" as="geometry"/>
                </mxCell>
                <mxCell id="337" value="&lt;p style=&quot;line-height: 70%;&quot;&gt;&lt;font style=&quot;font-size: 5px;&quot;&gt;patroni replica&lt;/font&gt;&lt;/p&gt;" style="text;html=1;strokeColor=none;fillColor=none;align=center;verticalAlign=middle;whiteSpace=wrap;rounded=0;fontColor=#000000;" vertex="1" parent="334">
                    <mxGeometry x="38.00500000000004" y="40.14123717350745" width="49.434782608695656" height="5.434141791044776" as="geometry"/>
                </mxCell>
                <mxCell id="338" value="&lt;p style=&quot;line-height: 70%;&quot;&gt;&lt;font style=&quot;font-size: 5px;&quot;&gt;patroni replica&lt;/font&gt;&lt;/p&gt;" style="text;html=1;strokeColor=none;fillColor=none;align=center;verticalAlign=middle;whiteSpace=wrap;rounded=0;fontColor=#000000;" vertex="1" parent="333">
                    <mxGeometry x="85.0391304347826" y="-1" width="49.434782608695656" height="5.434141791044776" as="geometry"/>
                </mxCell>
                <mxCell id="339" value="" style="shape=image;verticalLabelPosition=bottom;labelBackgroundColor=default;verticalAlign=top;aspect=fixed;imageAspect=0;image=data:image/svg+xml,PHN2ZyB4bWxucz0iaHR0cDovL3d3dy53My5vcmcvMjAwMC9zdmciIHhtbDpzcGFjZT0icHJlc2VydmUiIHZpZXdCb3g9IjAgMCA0MzIuMDcxIDQ0NS4zODMiIGhlaWdodD0iNDQ1LjM4M3B0IiB3aWR0aD0iNDMyLjA3MXB0Ij4KPGcgc3R5bGU9ImZpbGwtcnVsZTpub256ZXJvO2NsaXAtcnVsZTpub256ZXJvO3N0cm9rZTojMDAwMDAwO3N0cm9rZS1taXRlcmxpbWl0OjQ7IiBpZD0ib3JnaW5hbCI+Cgk8L2c+CjxnIHN0eWxlPSJmaWxsLXJ1bGU6bm9uemVybztjbGlwLXJ1bGU6bm9uemVybztmaWxsOm5vbmU7c3Ryb2tlOiNGRkZGRkY7c3Ryb2tlLXdpZHRoOjEyLjQ2NTE7c3Ryb2tlLWxpbmVjYXA6cm91bmQ7c3Ryb2tlLWxpbmVqb2luOnJvdW5kO3N0cm9rZS1taXRlcmxpbWl0OjQ7IiBpZD0iTGF5ZXJfeDAwMjBfMyI+CjxwYXRoIGQ9Ik0zMjMuMjA1LDMyNC4yMjdjMi44MzMtMjMuNjAxLDEuOTg0LTI3LjA2MiwxOS41NjMtMjMuMjM5bDQuNDYzLDAuMzkyYzEzLjUxNywwLjYxNSwzMS4xOTktMi4xNzQsNDEuNTg3LTdjMjIuMzYyLTEwLjM3NiwzNS42MjItMjcuNywxMy41NzItMjMuMTQ4Yy01MC4yOTcsMTAuMzc2LTUzLjc1NS02LjY1NS01My43NTUtNi42NTVjNTMuMTExLTc4LjgwMyw3NS4zMTMtMTc4LjgzNiw1Ni4xNDktMjAzLjMyMiAgICBDMzUyLjUxNC01LjUzNCwyNjIuMDM2LDI2LjA0OSwyNjAuNTIyLDI2Ljg2OWwtMC40ODIsMC4wODljLTkuOTM4LTIuMDYyLTIxLjA2LTMuMjk0LTMzLjU1NC0zLjQ5NmMtMjIuNzYxLTAuMzc0LTQwLjAzMiw1Ljk2Ny01My4xMzMsMTUuOTA0YzAsMC0xNjEuNDA4LTY2LjQ5OC0xNTMuODk5LDgzLjYyOGMxLjU5NywzMS45MzYsNDUuNzc3LDI0MS42NTUsOTguNDcsMTc4LjMxICAgIGMxOS4yNTktMjMuMTYzLDM3Ljg3MS00Mi43NDgsMzcuODcxLTQyLjc0OGM5LjI0Miw2LjE0LDIwLjMwNyw5LjI3MiwzMS45MTIsOC4xNDdsMC44OTctMC43NjVjLTAuMjgxLDIuODc2LTAuMTU3LDUuNjg5LDAuMzU5LDkuMDE5Yy0xMy41NzIsMTUuMTY3LTkuNTg0LDE3LjgzLTM2LjcyMywyMy40MTZjLTI3LjQ1Nyw1LjY1OS0xMS4zMjYsMTUuNzM0LTAuNzk3LDE4LjM2N2MxMi43NjgsMy4xOTMsNDIuMzA1LDcuNzE2LDYyLjI2OC0yMC4yMjQgICAgbC0wLjc5NSwzLjE4OGM1LjMyNSw0LjI2LDQuOTY1LDMwLjYxOSw1LjcyLDQ5LjQ1MmMwLjc1NiwxOC44MzQsMi4wMTcsMzYuNDA5LDUuODU2LDQ2Ljc3MWMzLjgzOSwxMC4zNiw4LjM2OSwzNy4wNSw0NC4wMzYsMjkuNDA2YzI5LjgwOS02LjM4OCw1Mi42LTE1LjU4Miw1NC42NzctMTAxLjEwNyIgc3R5bGU9ImZpbGw6IzAwMDAwMDtzdHJva2U6IzAwMDAwMDtzdHJva2Utd2lkdGg6MzcuMzk1MztzdHJva2UtbGluZWNhcDpidXR0O3N0cm9rZS1saW5lam9pbjptaXRlcjsiLz4KPHBhdGggZD0iTTQwMi4zOTUsMjcxLjIzYy01MC4zMDIsMTAuMzc2LTUzLjc2LTYuNjU1LTUzLjc2LTYuNjU1YzUzLjExMS03OC44MDgsNzUuMzEzLTE3OC44NDMsNTYuMTUzLTIwMy4zMjZjLTUyLjI3LTY2Ljc4NS0xNDIuNzUyLTM1LjItMTQ0LjI2Mi0zNC4zOGwtMC40ODYsMC4wODdjLTkuOTM4LTIuMDYzLTIxLjA2LTMuMjkyLTMzLjU2LTMuNDk2Yy0yMi43NjEtMC4zNzMtNDAuMDI2LDUuOTY3LTUzLjEyNywxNS45MDIgICAgYzAsMC0xNjEuNDExLTY2LjQ5NS0xNTMuOTA0LDgzLjYzYzEuNTk3LDMxLjkzOCw0NS43NzYsMjQxLjY1Nyw5OC40NzEsMTc4LjMxMmMxOS4yNi0yMy4xNjMsMzcuODY5LTQyLjc0OCwzNy44NjktNDIuNzQ4YzkuMjQzLDYuMTQsMjAuMzA4LDkuMjcyLDMxLjkwOCw4LjE0N2wwLjkwMS0wLjc2NWMtMC4yOCwyLjg3Ni0wLjE1Miw1LjY4OSwwLjM2MSw5LjAxOWMtMTMuNTc1LDE1LjE2Ny05LjU4NiwxNy44My0zNi43MjMsMjMuNDE2ICAgIGMtMjcuNDU5LDUuNjU5LTExLjMyOCwxNS43MzQtMC43OTYsMTguMzY3YzEyLjc2OCwzLjE5Myw0Mi4zMDcsNy43MTYsNjIuMjY2LTIwLjIyNGwtMC43OTYsMy4xODhjNS4zMTksNC4yNiw5LjA1NCwyNy43MTEsOC40MjgsNDguOTY5Yy0wLjYyNiwyMS4yNTktMS4wNDQsMzUuODU0LDMuMTQ3LDQ3LjI1NGM0LjE5MSwxMS40LDguMzY4LDM3LjA1LDQ0LjA0MiwyOS40MDZjMjkuODA5LTYuMzg4LDQ1LjI1Ni0yMi45NDIsNDcuNDA1LTUwLjU1NSAgICBjMS41MjUtMTkuNjMxLDQuOTc2LTE2LjcyOSw1LjE5NC0zNC4yOGwyLjc2OC04LjMwOWMzLjE5Mi0yNi42MTEsMC41MDctMzUuMTk2LDE4Ljg3Mi0zMS4yMDNsNC40NjMsMC4zOTJjMTMuNTE3LDAuNjE1LDMxLjIwOC0yLjE3NCw0MS41OTEtN2MyMi4zNTgtMTAuMzc2LDM1LjYxOC0yNy43LDEzLjU3My0yMy4xNDh6IiBzdHlsZT0iZmlsbDojMzM2NzkxO3N0cm9rZTpub25lOyIvPgo8cGF0aCBkPSJNMjE1Ljg2NiwyODYuNDg0Yy0xLjM4NSw0OS41MTYsMC4zNDgsOTkuMzc3LDUuMTkzLDExMS40OTVjNC44NDgsMTIuMTE4LDE1LjIyMywzNS42ODgsNTAuOSwyOC4wNDVjMjkuODA2LTYuMzksNDAuNjUxLTE4Ljc1Niw0NS4zNTctNDYuMDUxYzMuNDY2LTIwLjA4MiwxMC4xNDgtNzUuODU0LDExLjAwNS04Ny4yODEiLz4KPHBhdGggZD0iTTE3My4xMDQsMzguMjU2YzAsMC0xNjEuNTIxLTY2LjAxNi0xNTQuMDEyLDg0LjEwOWMxLjU5NywzMS45MzgsNDUuNzc5LDI0MS42NjQsOTguNDczLDE3OC4zMTZjMTkuMjU2LTIzLjE2NiwzNi42NzEtNDEuMzM1LDM2LjY3MS00MS4zMzUiLz4KPHBhdGggZD0iTTI2MC4zNDksMjYuMjA3Yy01LjU5MSwxLjc1Myw4OS44NDgtMzQuODg5LDE0NC4wODcsMzQuNDE3YzE5LjE1OSwyNC40ODQtMy4wNDMsMTI0LjUxOS01Ni4xNTMsMjAzLjMyOSIvPgo8cGF0aCBkPSJNMzQ4LjI4MiwyNjMuOTUzYzAsMCwzLjQ2MSwxNy4wMzYsNTMuNzY0LDYuNjUzYzIyLjA0LTQuNTUyLDguNzc2LDEyLjc3NC0xMy41NzcsMjMuMTU1Yy0xOC4zNDUsOC41MTQtNTkuNDc0LDEwLjY5Ni02MC4xNDYtMS4wNjljLTEuNzI5LTMwLjM1NSwyMS42NDctMjEuMTMzLDE5Ljk2LTI4LjczOWMtMS41MjUtNi44NS0xMS45NzktMTMuNTczLTE4Ljg5NC0zMC4zMzggICAgYy02LjAzNy0xNC42MzMtODIuNzk2LTEyNi44NDksMjEuMjg3LTExMC4xODNjMy44MTMtMC43ODktMjcuMTQ2LTk5LjAwMi0xMjQuNTUzLTEwMC41OTljLTk3LjM4NS0xLjU5Ny05NC4xOSwxMTkuNzYyLTk0LjE5LDExOS43NjIiIHN0eWxlPSJzdHJva2UtbGluZWpvaW46YmV2ZWw7Ii8+CjxwYXRoIGQ9Ik0xODguNjA0LDI3NC4zMzRjLTEzLjU3NywxNS4xNjYtOS41ODQsMTcuODI5LTM2LjcyMywyMy40MTdjLTI3LjQ1OSw1LjY2LTExLjMyNiwxNS43MzMtMC43OTcsMTguMzY1YzEyLjc2OCwzLjE5NSw0Mi4zMDcsNy43MTgsNjIuMjY2LTIwLjIyOWM2LjA3OC04LjUwOS0wLjAzNi0yMi4wODYtOC4zODUtMjUuNTQ3Yy00LjAzNC0xLjY3MS05LjQyOC0zLjc2NS0xNi4zNjEsMy45OTR6Ii8+CjxwYXRoIGQ9Ik0xODcuNzE1LDI3NC4wNjljLTEuMzY4LTguOTE3LDIuOTMtMTkuNTI4LDcuNTM2LTMxLjk0MmM2LjkyMi0xOC42MjYsMjIuODkzLTM3LjI1NSwxMC4xMTctOTYuMzM5Yy05LjUyMy00NC4wMjktNzMuMzk2LTkuMTYzLTczLjQzNi0zLjE5M2MtMC4wMzksNS45NjgsMi44ODksMzAuMjYtMS4wNjcsNTguNTQ4Yy01LjE2MiwzNi45MTMsMjMuNDg4LDY4LjEzMiw1Ni40NzksNjQuOTM4Ii8+CjxwYXRoIGQ9Ik0xNzIuNTE3LDE0MS43Yy0wLjI4OCwyLjAzOSwzLjczMyw3LjQ4LDguOTc2LDguMjA3YzUuMjM0LDAuNzMsOS43MTQtMy41MjIsOS45OTgtNS41NTljMC4yODQtMi4wMzktMy43MzItNC4yODUtOC45NzctNS4wMTVjLTUuMjM3LTAuNzMxLTkuNzE5LDAuMzMzLTkuOTk2LDIuMzY3eiIgc3R5bGU9ImZpbGw6I0ZGRkZGRjtzdHJva2Utd2lkdGg6NC4xNTU7c3Ryb2tlLWxpbmVjYXA6YnV0dDtzdHJva2UtbGluZWpvaW46bWl0ZXI7Ii8+CjxwYXRoIGQ9Ik0zMzEuOTQxLDEzNy41NDNjMC4yODQsMi4wMzktMy43MzIsNy40OC04Ljk3Niw4LjIwN2MtNS4yMzgsMC43My05LjcxOC0zLjUyMi0xMC4wMDUtNS41NTljLTAuMjc3LTIuMDM5LDMuNzQtNC4yODUsOC45NzktNS4wMTVjNS4yMzktMC43Myw5LjcxOCwwLjMzMywxMC4wMDIsMi4zNjh6IiBzdHlsZT0iZmlsbDojRkZGRkZGO3N0cm9rZS13aWR0aDoyLjA3NzU7c3Ryb2tlLWxpbmVjYXA6YnV0dDtzdHJva2UtbGluZWpvaW46bWl0ZXI7Ii8+CjxwYXRoIGQ9Ik0zNTAuNjc2LDEyMy40MzJjMC44NjMsMTUuOTk0LTMuNDQ1LDI2Ljg4OC0zLjk4OCw0My45MTRjLTAuODA0LDI0Ljc0OCwxMS43OTksNTMuMDc0LTcuMTkxLDgxLjQzNSIvPgo8cGF0aCBkPSJNMCw2MC4yMzIiIHN0eWxlPSJzdHJva2Utd2lkdGg6MzsiLz4KPC9nPgo8L3N2Zz4=;" vertex="1" parent="333">
                    <mxGeometry x="98.45760869565217" y="7.068470149253712" width="20.42910447761194" height="21.041977611940297" as="geometry"/>
                </mxCell>
                <mxCell id="340" value="" style="edgeStyle=orthogonalEdgeStyle;html=1;endArrow=block;startArrow=block;startFill=1;endFill=1;strokeColor=#545B64;rounded=0;curved=1;entryX=0;entryY=0.5;entryDx=0;entryDy=0;exitX=1;exitY=0.5;exitDx=0;exitDy=0;fontColor=#000000;endSize=3;startSize=3;" edge="1" parent="333" source="336" target="339">
                    <mxGeometry width="100" relative="1" as="geometry">
                        <mxPoint x="19.23836956521741" y="17.14299790111938" as="sourcePoint"/>
                        <mxPoint x="100.50915217391305" y="17.14299790111938" as="targetPoint"/>
                    </mxGeometry>
                </mxCell>
                <mxCell id="341" value="" style="shape=image;verticalLabelPosition=bottom;labelBackgroundColor=default;verticalAlign=top;aspect=fixed;imageAspect=0;image=data:image/svg+xml,PHN2ZyB4bWxucz0iaHR0cDovL3d3dy53My5vcmcvMjAwMC9zdmciIHhtbDpzcGFjZT0icHJlc2VydmUiIHZpZXdCb3g9IjAgMCA0MzIuMDcxIDQ0NS4zODMiIGhlaWdodD0iNDQ1LjM4M3B0IiB3aWR0aD0iNDMyLjA3MXB0Ij4KPGcgc3R5bGU9ImZpbGwtcnVsZTpub256ZXJvO2NsaXAtcnVsZTpub256ZXJvO3N0cm9rZTojMDAwMDAwO3N0cm9rZS1taXRlcmxpbWl0OjQ7IiBpZD0ib3JnaW5hbCI+Cgk8L2c+CjxnIHN0eWxlPSJmaWxsLXJ1bGU6bm9uemVybztjbGlwLXJ1bGU6bm9uemVybztmaWxsOm5vbmU7c3Ryb2tlOiNGRkZGRkY7c3Ryb2tlLXdpZHRoOjEyLjQ2NTE7c3Ryb2tlLWxpbmVjYXA6cm91bmQ7c3Ryb2tlLWxpbmVqb2luOnJvdW5kO3N0cm9rZS1taXRlcmxpbWl0OjQ7IiBpZD0iTGF5ZXJfeDAwMjBfMyI+CjxwYXRoIGQ9Ik0zMjMuMjA1LDMyNC4yMjdjMi44MzMtMjMuNjAxLDEuOTg0LTI3LjA2MiwxOS41NjMtMjMuMjM5bDQuNDYzLDAuMzkyYzEzLjUxNywwLjYxNSwzMS4xOTktMi4xNzQsNDEuNTg3LTdjMjIuMzYyLTEwLjM3NiwzNS42MjItMjcuNywxMy41NzItMjMuMTQ4Yy01MC4yOTcsMTAuMzc2LTUzLjc1NS02LjY1NS01My43NTUtNi42NTVjNTMuMTExLTc4LjgwMyw3NS4zMTMtMTc4LjgzNiw1Ni4xNDktMjAzLjMyMiAgICBDMzUyLjUxNC01LjUzNCwyNjIuMDM2LDI2LjA0OSwyNjAuNTIyLDI2Ljg2OWwtMC40ODIsMC4wODljLTkuOTM4LTIuMDYyLTIxLjA2LTMuMjk0LTMzLjU1NC0zLjQ5NmMtMjIuNzYxLTAuMzc0LTQwLjAzMiw1Ljk2Ny01My4xMzMsMTUuOTA0YzAsMC0xNjEuNDA4LTY2LjQ5OC0xNTMuODk5LDgzLjYyOGMxLjU5NywzMS45MzYsNDUuNzc3LDI0MS42NTUsOTguNDcsMTc4LjMxICAgIGMxOS4yNTktMjMuMTYzLDM3Ljg3MS00Mi43NDgsMzcuODcxLTQyLjc0OGM5LjI0Miw2LjE0LDIwLjMwNyw5LjI3MiwzMS45MTIsOC4xNDdsMC44OTctMC43NjVjLTAuMjgxLDIuODc2LTAuMTU3LDUuNjg5LDAuMzU5LDkuMDE5Yy0xMy41NzIsMTUuMTY3LTkuNTg0LDE3LjgzLTM2LjcyMywyMy40MTZjLTI3LjQ1Nyw1LjY1OS0xMS4zMjYsMTUuNzM0LTAuNzk3LDE4LjM2N2MxMi43NjgsMy4xOTMsNDIuMzA1LDcuNzE2LDYyLjI2OC0yMC4yMjQgICAgbC0wLjc5NSwzLjE4OGM1LjMyNSw0LjI2LDQuOTY1LDMwLjYxOSw1LjcyLDQ5LjQ1MmMwLjc1NiwxOC44MzQsMi4wMTcsMzYuNDA5LDUuODU2LDQ2Ljc3MWMzLjgzOSwxMC4zNiw4LjM2OSwzNy4wNSw0NC4wMzYsMjkuNDA2YzI5LjgwOS02LjM4OCw1Mi42LTE1LjU4Miw1NC42NzctMTAxLjEwNyIgc3R5bGU9ImZpbGw6IzAwMDAwMDtzdHJva2U6IzAwMDAwMDtzdHJva2Utd2lkdGg6MzcuMzk1MztzdHJva2UtbGluZWNhcDpidXR0O3N0cm9rZS1saW5lam9pbjptaXRlcjsiLz4KPHBhdGggZD0iTTQwMi4zOTUsMjcxLjIzYy01MC4zMDIsMTAuMzc2LTUzLjc2LTYuNjU1LTUzLjc2LTYuNjU1YzUzLjExMS03OC44MDgsNzUuMzEzLTE3OC44NDMsNTYuMTUzLTIwMy4zMjZjLTUyLjI3LTY2Ljc4NS0xNDIuNzUyLTM1LjItMTQ0LjI2Mi0zNC4zOGwtMC40ODYsMC4wODdjLTkuOTM4LTIuMDYzLTIxLjA2LTMuMjkyLTMzLjU2LTMuNDk2Yy0yMi43NjEtMC4zNzMtNDAuMDI2LDUuOTY3LTUzLjEyNywxNS45MDIgICAgYzAsMC0xNjEuNDExLTY2LjQ5NS0xNTMuOTA0LDgzLjYzYzEuNTk3LDMxLjkzOCw0NS43NzYsMjQxLjY1Nyw5OC40NzEsMTc4LjMxMmMxOS4yNi0yMy4xNjMsMzcuODY5LTQyLjc0OCwzNy44NjktNDIuNzQ4YzkuMjQzLDYuMTQsMjAuMzA4LDkuMjcyLDMxLjkwOCw4LjE0N2wwLjkwMS0wLjc2NWMtMC4yOCwyLjg3Ni0wLjE1Miw1LjY4OSwwLjM2MSw5LjAxOWMtMTMuNTc1LDE1LjE2Ny05LjU4NiwxNy44My0zNi43MjMsMjMuNDE2ICAgIGMtMjcuNDU5LDUuNjU5LTExLjMyOCwxNS43MzQtMC43OTYsMTguMzY3YzEyLjc2OCwzLjE5Myw0Mi4zMDcsNy43MTYsNjIuMjY2LTIwLjIyNGwtMC43OTYsMy4xODhjNS4zMTksNC4yNiw5LjA1NCwyNy43MTEsOC40MjgsNDguOTY5Yy0wLjYyNiwyMS4yNTktMS4wNDQsMzUuODU0LDMuMTQ3LDQ3LjI1NGM0LjE5MSwxMS40LDguMzY4LDM3LjA1LDQ0LjA0MiwyOS40MDZjMjkuODA5LTYuMzg4LDQ1LjI1Ni0yMi45NDIsNDcuNDA1LTUwLjU1NSAgICBjMS41MjUtMTkuNjMxLDQuOTc2LTE2LjcyOSw1LjE5NC0zNC4yOGwyLjc2OC04LjMwOWMzLjE5Mi0yNi42MTEsMC41MDctMzUuMTk2LDE4Ljg3Mi0zMS4yMDNsNC40NjMsMC4zOTJjMTMuNTE3LDAuNjE1LDMxLjIwOC0yLjE3NCw0MS41OTEtN2MyMi4zNTgtMTAuMzc2LDM1LjYxOC0yNy43LDEzLjU3My0yMy4xNDh6IiBzdHlsZT0iZmlsbDojMzM2NzkxO3N0cm9rZTpub25lOyIvPgo8cGF0aCBkPSJNMjE1Ljg2NiwyODYuNDg0Yy0xLjM4NSw0OS41MTYsMC4zNDgsOTkuMzc3LDUuMTkzLDExMS40OTVjNC44NDgsMTIuMTE4LDE1LjIyMywzNS42ODgsNTAuOSwyOC4wNDVjMjkuODA2LTYuMzksNDAuNjUxLTE4Ljc1Niw0NS4zNTctNDYuMDUxYzMuNDY2LTIwLjA4MiwxMC4xNDgtNzUuODU0LDExLjAwNS04Ny4yODEiLz4KPHBhdGggZD0iTTE3My4xMDQsMzguMjU2YzAsMC0xNjEuNTIxLTY2LjAxNi0xNTQuMDEyLDg0LjEwOWMxLjU5NywzMS45MzgsNDUuNzc5LDI0MS42NjQsOTguNDczLDE3OC4zMTZjMTkuMjU2LTIzLjE2NiwzNi42NzEtNDEuMzM1LDM2LjY3MS00MS4zMzUiLz4KPHBhdGggZD0iTTI2MC4zNDksMjYuMjA3Yy01LjU5MSwxLjc1Myw4OS44NDgtMzQuODg5LDE0NC4wODcsMzQuNDE3YzE5LjE1OSwyNC40ODQtMy4wNDMsMTI0LjUxOS01Ni4xNTMsMjAzLjMyOSIvPgo8cGF0aCBkPSJNMzQ4LjI4MiwyNjMuOTUzYzAsMCwzLjQ2MSwxNy4wMzYsNTMuNzY0LDYuNjUzYzIyLjA0LTQuNTUyLDguNzc2LDEyLjc3NC0xMy41NzcsMjMuMTU1Yy0xOC4zNDUsOC41MTQtNTkuNDc0LDEwLjY5Ni02MC4xNDYtMS4wNjljLTEuNzI5LTMwLjM1NSwyMS42NDctMjEuMTMzLDE5Ljk2LTI4LjczOWMtMS41MjUtNi44NS0xMS45NzktMTMuNTczLTE4Ljg5NC0zMC4zMzggICAgYy02LjAzNy0xNC42MzMtODIuNzk2LTEyNi44NDksMjEuMjg3LTExMC4xODNjMy44MTMtMC43ODktMjcuMTQ2LTk5LjAwMi0xMjQuNTUzLTEwMC41OTljLTk3LjM4NS0xLjU5Ny05NC4xOSwxMTkuNzYyLTk0LjE5LDExOS43NjIiIHN0eWxlPSJzdHJva2UtbGluZWpvaW46YmV2ZWw7Ii8+CjxwYXRoIGQ9Ik0xODguNjA0LDI3NC4zMzRjLTEzLjU3NywxNS4xNjYtOS41ODQsMTcuODI5LTM2LjcyMywyMy40MTdjLTI3LjQ1OSw1LjY2LTExLjMyNiwxNS43MzMtMC43OTcsMTguMzY1YzEyLjc2OCwzLjE5NSw0Mi4zMDcsNy43MTgsNjIuMjY2LTIwLjIyOWM2LjA3OC04LjUwOS0wLjAzNi0yMi4wODYtOC4zODUtMjUuNTQ3Yy00LjAzNC0xLjY3MS05LjQyOC0zLjc2NS0xNi4zNjEsMy45OTR6Ii8+CjxwYXRoIGQ9Ik0xODcuNzE1LDI3NC4wNjljLTEuMzY4LTguOTE3LDIuOTMtMTkuNTI4LDcuNTM2LTMxLjk0MmM2LjkyMi0xOC42MjYsMjIuODkzLTM3LjI1NSwxMC4xMTctOTYuMzM5Yy05LjUyMy00NC4wMjktNzMuMzk2LTkuMTYzLTczLjQzNi0zLjE5M2MtMC4wMzksNS45NjgsMi44ODksMzAuMjYtMS4wNjcsNTguNTQ4Yy01LjE2MiwzNi45MTMsMjMuNDg4LDY4LjEzMiw1Ni40NzksNjQuOTM4Ii8+CjxwYXRoIGQ9Ik0xNzIuNTE3LDE0MS43Yy0wLjI4OCwyLjAzOSwzLjczMyw3LjQ4LDguOTc2LDguMjA3YzUuMjM0LDAuNzMsOS43MTQtMy41MjIsOS45OTgtNS41NTljMC4yODQtMi4wMzktMy43MzItNC4yODUtOC45NzctNS4wMTVjLTUuMjM3LTAuNzMxLTkuNzE5LDAuMzMzLTkuOTk2LDIuMzY3eiIgc3R5bGU9ImZpbGw6I0ZGRkZGRjtzdHJva2Utd2lkdGg6NC4xNTU7c3Ryb2tlLWxpbmVjYXA6YnV0dDtzdHJva2UtbGluZWpvaW46bWl0ZXI7Ii8+CjxwYXRoIGQ9Ik0zMzEuOTQxLDEzNy41NDNjMC4yODQsMi4wMzktMy43MzIsNy40OC04Ljk3Niw4LjIwN2MtNS4yMzgsMC43My05LjcxOC0zLjUyMi0xMC4wMDUtNS41NTljLTAuMjc3LTIuMDM5LDMuNzQtNC4yODUsOC45NzktNS4wMTVjNS4yMzktMC43Myw5LjcxOCwwLjMzMywxMC4wMDIsMi4zNjh6IiBzdHlsZT0iZmlsbDojRkZGRkZGO3N0cm9rZS13aWR0aDoyLjA3NzU7c3Ryb2tlLWxpbmVjYXA6YnV0dDtzdHJva2UtbGluZWpvaW46bWl0ZXI7Ii8+CjxwYXRoIGQ9Ik0zNTAuNjc2LDEyMy40MzJjMC44NjMsMTUuOTk0LTMuNDQ1LDI2Ljg4OC0zLjk4OCw0My45MTRjLTAuODA0LDI0Ljc0OCwxMS43OTksNTMuMDc0LTcuMTkxLDgxLjQzNSIvPgo8cGF0aCBkPSJNMCw2MC4yMzIiIHN0eWxlPSJzdHJva2Utd2lkdGg6MzsiLz4KPC9nPgo8L3N2Zz4=;" vertex="1" parent="345">
                    <mxGeometry x="87.4171739130435" y="79.40485074626865" width="20.42910447761194" height="21.041977611940297" as="geometry"/>
                </mxCell>
                <mxCell id="342" value="" style="edgeStyle=orthogonalEdgeStyle;html=1;endArrow=block;startArrow=block;startFill=1;endFill=1;strokeColor=#545B64;rounded=0;exitX=0.5;exitY=1;exitDx=0;exitDy=0;entryX=0;entryY=0.5;entryDx=0;entryDy=0;curved=1;fontColor=#000000;endSize=3;startSize=3;" edge="1" parent="345" source="336" target="341">
                    <mxGeometry width="100" relative="1" as="geometry">
                        <mxPoint x="45.95375000000008" y="55.21977028917909" as="sourcePoint"/>
                        <mxPoint x="88.29876086956529" y="89.2750874533582" as="targetPoint"/>
                    </mxGeometry>
                </mxCell>
                <mxCell id="343" value="" style="edgeStyle=orthogonalEdgeStyle;html=1;endArrow=block;startArrow=block;startFill=1;endFill=1;strokeColor=#545B64;rounded=0;exitX=1;exitY=0.5;exitDx=0;exitDy=0;entryX=0.5;entryY=1;entryDx=0;entryDy=0;curved=1;fontColor=#000000;endSize=3;startSize=3;" edge="1" parent="345" source="341" target="339">
                    <mxGeometry width="100" relative="1" as="geometry">
                        <mxPoint x="107.5371304347827" y="89.2750874533582" as="sourcePoint"/>
                        <mxPoint x="147.31125201911425" y="53.23006063432835" as="targetPoint"/>
                    </mxGeometry>
                </mxCell>
                <mxCell id="368" value="" style="edgeStyle=orthogonalEdgeStyle;html=1;endArrow=block;elbow=vertical;startArrow=none;endFill=1;strokeColor=#545B64;rounded=0;entryX=0;entryY=0.5;entryDx=0;entryDy=0;exitX=1;exitY=0.5;exitDx=0;exitDy=0;" edge="1" parent="1" source="362" target="363">
                    <mxGeometry width="100" relative="1" as="geometry">
                        <mxPoint x="460" y="256.50000000000006" as="sourcePoint"/>
                        <mxPoint x="589.49" y="256.495" as="targetPoint"/>
                        <Array as="points">
                            <mxPoint x="630" y="245"/>
                            <mxPoint x="650" y="245"/>
                        </Array>
                    </mxGeometry>
                </mxCell>
                <mxCell id="347" value="Public subnet" style="points=[[0,0],[0.25,0],[0.5,0],[0.75,0],[1,0],[1,0.25],[1,0.5],[1,0.75],[1,1],[0.75,1],[0.5,1],[0.25,1],[0,1],[0,0.75],[0,0.5],[0,0.25]];outlineConnect=0;gradientColor=none;html=1;whiteSpace=wrap;fontSize=12;fontStyle=0;container=1;pointerEvents=0;collapsible=0;recursiveResize=0;shape=mxgraph.aws4.group;grIcon=mxgraph.aws4.group_security_group;grStroke=0;strokeColor=#248814;fillColor=#E9F3E6;verticalAlign=top;align=left;spacingLeft=30;fontColor=#248814;dashed=0;" vertex="1" parent="1">
                    <mxGeometry x="549.5" y="174.5" width="230" height="134" as="geometry"/>
                </mxCell>
                <mxCell id="371" value="&lt;p style=&quot;line-height: 70%;&quot;&gt;&lt;font style=&quot;font-size: 6px;&quot;&gt;Grafana&lt;/font&gt;&lt;/p&gt;" style="text;html=1;strokeColor=none;fillColor=none;align=center;verticalAlign=middle;whiteSpace=wrap;rounded=0;fontColor=#000000;" vertex="1" parent="347">
                    <mxGeometry x="27.951869565217326" y="33.49797924440304" width="52.038347826086955" height="5.434141791044776" as="geometry"/>
                </mxCell>
                <mxCell id="372" value="&lt;p style=&quot;line-height: 70%;&quot;&gt;&lt;font style=&quot;font-size: 6px;&quot;&gt;Prometheus&lt;/font&gt;&lt;/p&gt;" style="text;html=1;strokeColor=none;fillColor=none;align=center;verticalAlign=middle;whiteSpace=wrap;rounded=0;fontColor=#000000;" vertex="1" parent="347">
                    <mxGeometry x="139.50186956521736" y="33.49797924440304" width="52.038347826086955" height="5.434141791044776" as="geometry"/>
                </mxCell>
                <mxCell id="362" value="" style="shape=image;verticalLabelPosition=bottom;labelBackgroundColor=default;verticalAlign=top;aspect=fixed;imageAspect=0;image=data:image/svg+xml,PHN2ZyB4bWxuczp4bGluaz0iaHR0cDovL3d3dy53My5vcmcvMTk5OS94bGluayIgeG1sbnM9Imh0dHA6Ly93d3cudzMub3JnLzIwMDAvc3ZnIiB4bWw6c3BhY2U9InByZXNlcnZlIiBzdHlsZT0iZW5hYmxlLWJhY2tncm91bmQ6bmV3IDAgMCAzNTEgMzY1OyIgdmlld0JveD0iMCAwIDM1MSAzNjUiIGhlaWdodD0iMzY1cHgiIHdpZHRoPSIzNTFweCIgeT0iMHB4IiB4PSIwcHgiIGlkPSJMYXllcl8xIiB2ZXJzaW9uPSIxLjEiPgo8c3R5bGUgdHlwZT0idGV4dC9jc3MiPgoJLnN0MHtmaWxsOnVybCgjU1ZHSURfMV8pO30KPC9zdHlsZT4KPGcgaWQ9IkxheWVyXzFfMV8iPgo8L2c+CjxsaW5lYXJHcmFkaWVudCB5Mj0iOTklIiB4Mj0iMTc1LjUiIHkxPSIzMCUiIHgxPSIxNzUuNSIgZ3JhZGllbnRVbml0cz0idXNlclNwYWNlT25Vc2UiIGlkPSJTVkdJRF8xXyI+Cgk8c3RvcCBzdHlsZT0ic3RvcC1jb2xvcjojRjA1QTI4IiBvZmZzZXQ9IjAiLz4KCTxzdG9wIHN0eWxlPSJzdG9wLWNvbG9yOiNGQkNBMEEiIG9mZnNldD0iMSIvPgo8L2xpbmVhckdyYWRpZW50Pgo8cGF0aCBkPSJNMzQyLDE2MS4yYy0wLjYtNi4xLTEuNi0xMy4xLTMuNi0yMC45Yy0yLTcuNy01LTE2LjItOS40LTI1Yy00LjQtOC44LTEwLjEtMTcuOS0xNy41LTI2LjgmIzEwOyYjOTtjLTIuOS0zLjUtNi4xLTYuOS05LjUtMTAuMmM1LjEtMjAuMy02LjItMzcuOS02LjItMzcuOWMtMTkuNS0xLjItMzEuOSw2LjEtMzYuNSw5LjRjLTAuOC0wLjMtMS41LTAuNy0yLjMtMSYjMTA7JiM5O2MtMy4zLTEuMy02LjctMi42LTEwLjMtMy43Yy0zLjUtMS4xLTcuMS0yLjEtMTAuOC0zYy0zLjctMC45LTcuNC0xLjYtMTEuMi0yLjJjLTAuNy0wLjEtMS4zLTAuMi0yLTAuMyYjMTA7JiM5O2MtOC41LTI3LjItMzIuOS0zOC42LTMyLjktMzguNmMtMjcuMywxNy4zLTMyLjQsNDEuNS0zMi40LDQxLjVzLTAuMSwwLjUtMC4zLDEuNGMtMS41LDAuNC0zLDAuOS00LjUsMS4zYy0yLjEsMC42LTQuMiwxLjQtNi4yLDIuMiYjMTA7JiM5O2MtMi4xLDAuOC00LjEsMS42LTYuMiwyLjVjLTQuMSwxLjgtOC4yLDMuOC0xMi4yLDZjLTMuOSwyLjItNy43LDQuNi0xMS40LDcuMWMtMC41LTAuMi0xLTAuNC0xLTAuNGMtMzcuOC0xNC40LTcxLjMsMi45LTcxLjMsMi45JiMxMDsmIzk7Yy0zLjEsNDAuMiwxNS4xLDY1LjUsMTguNyw3MC4xYy0wLjksMi41LTEuNyw1LTIuNSw3LjVjLTIuOCw5LjEtNC45LDE4LjQtNi4yLDI4LjFjLTAuMiwxLjQtMC40LDIuOC0wLjUsNC4yJiMxMDsmIzk7QzE4LjgsMTkyLjcsOC41LDIyOCw4LjUsMjI4YzI5LjEsMzMuNSw2My4xLDM1LjYsNjMuMSwzNS42YzAsMCwwLjEtMC4xLDAuMS0wLjFjNC4zLDcuNyw5LjMsMTUsMTQuOSwyMS45YzIuNCwyLjksNC44LDUuNiw3LjQsOC4zJiMxMDsmIzk7Yy0xMC42LDMwLjQsMS41LDU1LjYsMS41LDU1LjZjMzIuNCwxLjIsNTMuNy0xNC4yLDU4LjItMTcuN2MzLjIsMS4xLDYuNSwyLjEsOS44LDIuOWMxMCwyLjYsMjAuMiw0LjEsMzAuNCw0LjUmIzEwOyYjOTtjMi41LDAuMSw1LjEsMC4yLDcuNiwwLjFsMS4yLDBsMC44LDBsMS42LDBsMS42LTAuMWwwLDAuMWMxNS4zLDIxLjgsNDIuMSwyNC45LDQyLjEsMjQuOWMxOS4xLTIwLjEsMjAuMi00MC4xLDIwLjItNDQuNGwwLDAmIzEwOyYjOTtjMCwwLDAtMC4xLDAtMC4zYzAtMC40LDAtMC42LDAtMC42bDAsMGMwLTAuMywwLTAuNiwwLTAuOWM0LTIuOCw3LjgtNS44LDExLjQtOS4xYzcuNi02LjksMTQuMy0xNC44LDE5LjktMjMuMyYjMTA7JiM5O2MwLjUtMC44LDEtMS42LDEuNS0yLjRjMjEuNiwxLjIsMzYuOS0xMy40LDM2LjktMTMuNGMtMy42LTIyLjUtMTYuNC0zMy41LTE5LjEtMzUuNmwwLDBjMCwwLTAuMS0wLjEtMC4zLTAuMiYjMTA7JiM5O2MtMC4yLTAuMS0wLjItMC4yLTAuMi0wLjJjMCwwLDAsMCwwLDBjLTAuMS0wLjEtMC4zLTAuMi0wLjUtMC4zYzAuMS0xLjQsMC4yLTIuNywwLjMtNC4xYzAuMi0yLjQsMC4yLTQuOSwwLjItNy4zbDAtMS44bDAtMC45JiMxMDsmIzk7bDAtMC41YzAtMC42LDAtMC40LDAtMC42bC0wLjEtMS41bC0wLjEtMmMwLTAuNy0wLjEtMS4zLTAuMi0xLjljLTAuMS0wLjYtMC4xLTEuMy0wLjItMS45bC0wLjItMS45bC0wLjMtMS45JiMxMDsmIzk7Yy0wLjQtMi41LTAuOC00LjktMS40LTcuNGMtMi4zLTkuNy02LjEtMTguOS0xMS0yNy4yYy01LTguMy0xMS4yLTE1LjYtMTguMy0yMS44Yy03LTYuMi0xNC45LTExLjItMjMuMS0xNC45JiMxMDsmIzk7Yy04LjMtMy43LTE2LjktNi4xLTI1LjUtNy4yYy00LjMtMC42LTguNi0wLjgtMTIuOS0wLjdsLTEuNiwwbC0wLjQsMGMtMC4xLDAtMC42LDAtMC41LDBsLTAuNywwbC0xLjYsMC4xYy0wLjYsMC0xLjIsMC4xLTEuNywwLjEmIzEwOyYjOTtjLTIuMiwwLjItNC40LDAuNS02LjUsMC45Yy04LjYsMS42LTE2LjcsNC43LTIzLjgsOWMtNy4xLDQuMy0xMy4zLDkuNi0xOC4zLDE1LjZjLTUsNi04LjksMTIuNy0xMS42LDE5LjZjLTIuNyw2LjktNC4yLDE0LjEtNC42LDIxJiMxMDsmIzk7Yy0wLjEsMS43LTAuMSwzLjUtMC4xLDUuMmMwLDAuNCwwLDAuOSwwLDEuM2wwLjEsMS40YzAuMSwwLjgsMC4xLDEuNywwLjIsMi41YzAuMywzLjUsMSw2LjksMS45LDEwLjFjMS45LDYuNSw0LjksMTIuNCw4LjYsMTcuNCYjMTA7JiM5O2MzLjcsNSw4LjIsOS4xLDEyLjksMTIuNGM0LjcsMy4yLDkuOCw1LjUsMTQuOCw3YzUsMS41LDEwLDIuMSwxNC43LDIuMWMwLjYsMCwxLjIsMCwxLjcsMGMwLjMsMCwwLjYsMCwwLjksMGMwLjMsMCwwLjYsMCwwLjktMC4xJiMxMDsmIzk7YzAuNSwwLDEtMC4xLDEuNS0wLjFjMC4xLDAsMC4zLDAsMC40LTAuMWwwLjUtMC4xYzAuMywwLDAuNi0wLjEsMC45LTAuMWMwLjYtMC4xLDEuMS0wLjIsMS43LTAuM2MwLjYtMC4xLDEuMS0wLjIsMS42LTAuNCYjMTA7JiM5O2MxLjEtMC4yLDIuMS0wLjYsMy4xLTAuOWMyLTAuNyw0LTEuNSw1LjctMi40YzEuOC0wLjksMy40LTIsNS0zYzAuNC0wLjMsMC45LTAuNiwxLjMtMWMxLjYtMS4zLDEuOS0zLjcsMC42LTUuMyYjMTA7JiM5O2MtMS4xLTEuNC0zLjEtMS44LTQuNy0wLjljLTAuNCwwLjItMC44LDAuNC0xLjIsMC42Yy0xLjQsMC43LTIuOCwxLjMtNC4zLDEuOGMtMS41LDAuNS0zLjEsMC45LTQuNywxLjJjLTAuOCwwLjEtMS42LDAuMi0yLjUsMC4zJiMxMDsmIzk7Yy0wLjQsMC0wLjgsMC4xLTEuMywwLjFjLTAuNCwwLTAuOSwwLTEuMiwwYy0wLjQsMC0wLjgsMC0xLjIsMGMtMC41LDAtMSwwLTEuNS0wLjFjMCwwLTAuMywwLTAuMSwwbC0wLjIsMGwtMC4zLDAmIzEwOyYjOTtjLTAuMiwwLTAuNSwwLTAuNy0wLjFjLTAuNS0wLjEtMC45LTAuMS0xLjQtMC4yYy0zLjctMC41LTcuNC0xLjYtMTAuOS0zLjJjLTMuNi0xLjYtNy0zLjgtMTAuMS02LjZjLTMuMS0yLjgtNS44LTYuMS03LjktOS45JiMxMDsmIzk7Yy0yLjEtMy44LTMuNi04LTQuMy0xMi40Yy0wLjMtMi4yLTAuNS00LjUtMC40LTYuN2MwLTAuNiwwLjEtMS4yLDAuMS0xLjhjMCwwLjIsMC0wLjEsMC0wLjFsMC0wLjJsMC0wLjVjMC0wLjMsMC4xLTAuNiwwLjEtMC45JiMxMDsmIzk7YzAuMS0xLjIsMC4zLTIuNCwwLjUtMy42YzEuNy05LjYsNi41LTE5LDEzLjktMjYuMWMxLjktMS44LDMuOS0zLjQsNi00LjljMi4xLTEuNSw0LjQtMi44LDYuOC0zLjljMi40LTEuMSw0LjgtMiw3LjQtMi43JiMxMDsmIzk7YzIuNS0wLjcsNS4xLTEuMSw3LjgtMS40YzEuMy0wLjEsMi42LTAuMiw0LTAuMmMwLjQsMCwwLjYsMCwwLjksMGwxLjEsMGwwLjcsMGMwLjMsMCwwLDAsMC4xLDBsMC4zLDBsMS4xLDAuMSYjMTA7JiM5O2MyLjksMC4yLDUuNywwLjYsOC41LDEuM2M1LjYsMS4yLDExLjEsMy4zLDE2LjIsNi4xYzEwLjIsNS43LDE4LjksMTQuNSwyNC4yLDI1LjFjMi43LDUuMyw0LjYsMTEsNS41LDE2LjljMC4yLDEuNSwwLjQsMywwLjUsNC41JiMxMDsmIzk7bDAuMSwxLjFsMC4xLDEuMWMwLDAuNCwwLDAuOCwwLDEuMWMwLDAuNCwwLDAuOCwwLDEuMWwwLDFsMCwxLjFjMCwwLjctMC4xLDEuOS0wLjEsMi42Yy0wLjEsMS42LTAuMywzLjMtMC41LDQuOSYjMTA7JiM5O2MtMC4yLDEuNi0wLjUsMy4yLTAuOCw0LjhjLTAuMywxLjYtMC43LDMuMi0xLjEsNC43Yy0wLjgsMy4xLTEuOCw2LjItMyw5LjNjLTIuNCw2LTUuNiwxMS44LTkuNCwxNy4xJiMxMDsmIzk7Yy03LjcsMTAuNi0xOC4yLDE5LjItMzAuMiwyNC43Yy02LDIuNy0xMi4zLDQuNy0xOC44LDUuN2MtMy4yLDAuNi02LjUsMC45LTkuOCwxbC0wLjYsMGwtMC41LDBsLTEuMSwwbC0xLjYsMGwtMC44LDAmIzEwOyYjOTtjMC40LDAtMC4xLDAtMC4xLDBsLTAuMywwYy0xLjgsMC0zLjUtMC4xLTUuMy0wLjNjLTctMC41LTEzLjktMS44LTIwLjctMy43Yy02LjctMS45LTEzLjItNC42LTE5LjQtNy44JiMxMDsmIzk7Yy0xMi4zLTYuNi0yMy40LTE1LjYtMzItMjYuNWMtNC4zLTUuNC04LjEtMTEuMy0xMS4yLTE3LjRjLTMuMS02LjEtNS42LTEyLjYtNy40LTE5LjFjLTEuOC02LjYtMi45LTEzLjMtMy40LTIwLjFsLTAuMS0xLjNsMC0wLjMmIzEwOyYjOTtsMC0wLjNsMC0wLjZsMC0xLjFsMC0wLjNsMC0wLjRsMC0wLjhsMC0xLjZsMC0wLjNjMCwwLDAsMC4xLDAtMC4xbDAtMC42YzAtMC44LDAtMS43LDAtMi41YzAuMS0zLjMsMC40LTYuOCwwLjgtMTAuMiYjMTA7JiM5O2MwLjQtMy40LDEtNi45LDEuNy0xMC4zYzAuNy0zLjQsMS41LTYuOCwyLjUtMTAuMmMxLjktNi43LDQuMy0xMy4yLDcuMS0xOS4zYzUuNy0xMi4yLDEzLjEtMjMuMSwyMi0zMS44YzIuMi0yLjIsNC41LTQuMiw2LjktNi4yJiMxMDsmIzk7YzIuNC0xLjksNC45LTMuNyw3LjUtNS40YzIuNS0xLjcsNS4yLTMuMiw3LjktNC42YzEuMy0wLjcsMi43LTEuNCw0LjEtMmMwLjctMC4zLDEuNC0wLjYsMi4xLTAuOWMwLjctMC4zLDEuNC0wLjYsMi4xLTAuOSYjMTA7JiM5O2MyLjgtMS4yLDUuNy0yLjIsOC43LTMuMWMwLjctMC4yLDEuNS0wLjQsMi4yLTAuN2MwLjctMC4yLDEuNS0wLjQsMi4yLTAuNmMxLjUtMC40LDMtMC44LDQuNS0xLjFjMC43LTAuMiwxLjUtMC4zLDIuMy0wLjUmIzEwOyYjOTtjMC44LTAuMiwxLjUtMC4zLDIuMy0wLjVjMC44LTAuMSwxLjUtMC4zLDIuMy0wLjRsMS4xLTAuMmwxLjItMC4yYzAuOC0wLjEsMS41LTAuMiwyLjMtMC4zYzAuOS0wLjEsMS43LTAuMiwyLjYtMC4zJiMxMDsmIzk7YzAuNy0wLjEsMS45LTAuMiwyLjYtMC4zYzAuNS0wLjEsMS4xLTAuMSwxLjYtMC4ybDEuMS0wLjFsMC41LTAuMWwwLjYsMGMwLjktMC4xLDEuNy0wLjEsMi42LTAuMmwxLjMtMC4xYzAsMCwwLjUsMCwwLjEsMGwwLjMsMCYjMTA7JiM5O2wwLjYsMGMwLjcsMCwxLjUtMC4xLDIuMi0wLjFjMi45LTAuMSw1LjktMC4xLDguOCwwYzUuOCwwLjIsMTEuNSwwLjksMTcsMS45YzExLjEsMi4xLDIxLjUsNS42LDMxLDEwLjMmIzEwOyYjOTtjOS41LDQuNiwxNy45LDEwLjMsMjUuMywxNi41YzAuNSwwLjQsMC45LDAuOCwxLjQsMS4yYzAuNCwwLjQsMC45LDAuOCwxLjMsMS4yYzAuOSwwLjgsMS43LDEuNiwyLjYsMi40YzAuOSwwLjgsMS43LDEuNiwyLjUsMi40JiMxMDsmIzk7YzAuOCwwLjgsMS42LDEuNiwyLjQsMi41YzMuMSwzLjMsNiw2LjYsOC42LDEwYzUuMiw2LjcsOS40LDEzLjUsMTIuNywxOS45YzAuMiwwLjQsMC40LDAuOCwwLjYsMS4yYzAuMiwwLjQsMC40LDAuOCwwLjYsMS4yJiMxMDsmIzk7YzAuNCwwLjgsMC44LDEuNiwxLjEsMi40YzAuNCwwLjgsMC43LDEuNSwxLjEsMi4zYzAuMywwLjgsMC43LDEuNSwxLDIuM2MxLjIsMywyLjQsNS45LDMuMyw4LjZjMS41LDQuNCwyLjYsOC4zLDMuNSwxMS43JiMxMDsmIzk7YzAuMywxLjQsMS42LDIuMywzLDIuMWMxLjUtMC4xLDIuNi0xLjMsMi42LTIuOEMzNDIuNiwxNzAuNCwzNDIuNSwxNjYuMSwzNDIsMTYxLjJ6IiBjbGFzcz0ic3QwIi8+Cjwvc3ZnPg==;" vertex="1" parent="1">
                    <mxGeometry x="579.49" y="219.98000000000002" width="42" height="43.67" as="geometry"/>
                </mxCell>
                <mxCell id="363" value="" style="shape=image;verticalLabelPosition=bottom;labelBackgroundColor=default;verticalAlign=top;aspect=fixed;imageAspect=0;image=data:image/svg+xml,PHN2ZyB4bWxucz0iaHR0cDovL3d3dy53My5vcmcvMjAwMC9zdmciIHhtbDpzcGFjZT0icHJlc2VydmUiIHZpZXdCb3g9IjAgMCAxMTUuMzMzIDExNCIgaGVpZ2h0PSIxMTRweCIgd2lkdGg9IjExNS4zMzNweCIgeT0iMHB4IiB4PSIwcHgiIGlkPSJMYXllcl8xIiB2ZXJzaW9uPSIxLjEiPjxtZXRhZGF0YSBpZD0ibWV0YWRhdGE0NDk1Ij5pbWFnZS9zdmcreG1sPC9tZXRhZGF0YT48ZGVmcyBpZD0iZGVmczQ0OTMiLz48ZyBpZD0iTGF5ZXJfMiIvPjxwYXRoIGQ9Ik0gNTYuNjY3LDAuNjY3IEMgMjUuMzcyLDAuNjY3IDAsMjYuMDM2IDAsNTcuMzMyIGMgMCwzMS4yOTUgMjUuMzcyLDU2LjY2NiA1Ni42NjcsNTYuNjY2IDMxLjI5NSwwIDU2LjY2NiwtMjUuMzcxIDU2LjY2NiwtNTYuNjY2IDAsLTMxLjI5NiAtMjUuMzcyLC01Ni42NjUgLTU2LjY2NiwtNTYuNjY1IHogbSAwLDEwNi4wNTUgYyAtOC45MDQsMCAtMTYuMTIzLC01Ljk0OCAtMTYuMTIzLC0xMy4yODMgSCA3Mi43OSBjIDAsNy4zMzQgLTcuMjE5LDEzLjI4MyAtMTYuMTIzLDEzLjI4MyB6IE0gODMuMjk3LDg5LjA0IEggMzAuMDM0IFYgNzkuMzgyIEggODMuMjk4IFYgODkuMDQgWiBNIDgzLjEwNiw3NC40MTEgSCAzMC4xODYgQyAzMC4wMSw3NC4yMDggMjkuODMsNzQuMDA4IDI5LjY2LDczLjgwMiAyNC4yMDgsNjcuMTgyIDIyLjkyNCw2My43MjYgMjEuNjc3LDYwLjIwNCBjIC0wLjAyMSwtMC4xMTYgNi42MTEsMS4zNTUgMTEuMzE0LDIuNDEzIDAsMCAyLjQyLDAuNTYgNS45NTgsMS4yMDUgLTMuMzk3LC0zLjk4MiAtNS40MTQsLTkuMDQ0IC01LjQxNCwtMTQuMjE4IDAsLTExLjM1OSA4LjcxMiwtMjEuMjg1IDUuNTY5LC0yOS4zMDggMy4wNTksMC4yNDkgNi4zMzEsNi40NTYgNi41NTIsMTYuMTYxIDMuMjUyLC00LjQ5NCA0LjYxMywtMTIuNzAxIDQuNjEzLC0xNy43MzMgMCwtNS4yMSAzLjQzMywtMTEuMjYyIDYuODY3LC0xMS40NjkgLTMuMDYxLDUuMDQ1IDAuNzkzLDkuMzcgNC4yMTksMjAuMDk5IDEuMjg1LDQuMDMgMS4xMjEsMTAuODEyIDIuMTEzLDE1LjExMyBDIDYzLjc5NywzMy41MzQgNjUuMzMzLDIwLjUgNzEsMTYgYyAtMi41LDUuNjY3IDAuMzcsMTIuNzU4IDIuMzMzLDE2LjE2NyAzLjE2Nyw1LjUgNS4wODcsOS42NjcgNS4wODcsMTcuNTQ4IDAsNS4yODQgLTEuOTUxLDEwLjI1OSAtNS4yNDIsMTQuMTQ4IDMuNzQyLC0wLjcwMiA2LjMyNiwtMS4zMzUgNi4zMjYsLTEuMzM1IGwgMTIuMTUyLC0yLjM3MSBjIDEwZS00LC0xMGUtNCAtMS43NjUsNy4yNjEgLTguNTUsMTQuMjU0IHoiIGlkPSJwYXRoNDQ4NiIgc3R5bGU9ImZpbGw6I2U2NTIyYztmaWxsLW9wYWNpdHk6MSIvPjwvc3ZnPg==;" vertex="1" parent="1">
                    <mxGeometry x="693.25" y="219.98000000000002" width="42" height="41.65" as="geometry"/>
                </mxCell>
                <mxCell id="66" value="" style="edgeStyle=orthogonalEdgeStyle;html=1;endArrow=block;elbow=vertical;startArrow=none;endFill=1;strokeColor=#545B64;rounded=0;entryX=0;entryY=0.5;entryDx=0;entryDy=0;" parent="1" source="63" target="362" edge="1">
                    <mxGeometry width="100" relative="1" as="geometry">
                        <mxPoint x="330" y="310" as="sourcePoint"/>
                        <mxPoint x="422.5" y="241.02127659574467" as="targetPoint"/>
                        <Array as="points">
                            <mxPoint x="490" y="242"/>
                        </Array>
                    </mxGeometry>
                </mxCell>
                <mxCell id="360" value="" style="edgeStyle=orthogonalEdgeStyle;html=1;endArrow=block;elbow=vertical;startArrow=none;endFill=1;strokeColor=#545B64;rounded=0;exitX=0.5;exitY=1;exitDx=0;exitDy=0;" edge="1" parent="1" source="363" target="219">
                    <mxGeometry width="100" relative="1" as="geometry">
                        <mxPoint x="476" y="267.99954452288773" as="sourcePoint"/>
                        <mxPoint x="716" y="370" as="targetPoint"/>
                        <Array as="points">
                            <mxPoint x="714" y="316"/>
                            <mxPoint x="714" y="316"/>
                        </Array>
                    </mxGeometry>
                </mxCell>
                <mxCell id="369" value="" style="edgeStyle=orthogonalEdgeStyle;html=1;endArrow=block;elbow=vertical;startArrow=none;endFill=1;strokeColor=#545B64;rounded=0;exitX=1;exitY=0.5;exitDx=0;exitDy=0;" edge="1" parent="1" source="362" target="363">
                    <mxGeometry width="100" relative="1" as="geometry">
                        <mxPoint x="460" y="256.52631578947376" as="sourcePoint"/>
                        <mxPoint x="589.49" y="256.495" as="targetPoint"/>
                        <Array as="points">
                            <mxPoint x="660" y="242"/>
                            <mxPoint x="660" y="242"/>
                        </Array>
                    </mxGeometry>
                </mxCell>
                <mxCell id="375" value="" style="group;align=left;" vertex="1" connectable="0" parent="1">
                    <mxGeometry x="717" y="313.18" width="64" height="19.64" as="geometry"/>
                </mxCell>
                <mxCell id="370" value="&lt;p style=&quot;line-height: 70%;&quot;&gt;&lt;font style=&quot;font-size: 6px;&quot;&gt;PrompQL&lt;/font&gt;&lt;/p&gt;" style="text;html=1;strokeColor=none;fillColor=none;align=left;verticalAlign=middle;whiteSpace=wrap;rounded=0;fontColor=#000000;" vertex="1" parent="375">
                    <mxGeometry width="64.00000000000004" height="5.432996051004535" as="geometry"/>
                </mxCell>
                <mxCell id="373" value="&lt;p style=&quot;line-height: 70%;&quot;&gt;&lt;font style=&quot;font-size: 6px;&quot;&gt;provided by Patroni&lt;/font&gt;&lt;/p&gt;" style="text;html=1;strokeColor=none;fillColor=none;align=left;verticalAlign=middle;whiteSpace=wrap;rounded=0;fontColor=#000000;" vertex="1" parent="375">
                    <mxGeometry y="6.998524112805649" width="64.00000000000004" height="5.432996051004535" as="geometry"/>
                </mxCell>
            </root>
        </mxGraphModel>
    </diagram>
</mxfile>